<?xml version="1.0" standalone="no"?><!DOCTYPE svg PUBLIC "-//W3C//DTD SVG 1.1//EN" "http://www.w3.org/Graphics/SVG/1.1/DTD/svg11.dtd"><svg t="1542950025887" class="icon" style="" viewBox="0 0 1024 1024" version="1.1" xmlns="http://www.w3.org/2000/svg" p-id="1985" xmlns:xlink="http://www.w3.org/1999/xlink" width="200" height="200"><defs><style type="text/css"></style></defs><path d="M147.2 907.2h728c41.6 0 76.8-35.2 76.8-76.8v-475.2c0-41.6-35.2-76.8-76.8-76.8h-84.8c-43.2 0-78.4-20.8-100.8-57.6l-38.4-65.6c-14.4-24-38.4-38.4-67.2-38.4h-148.8c-28.8 0-52.8 14.4-67.2 38.4l-38.4 65.6c-20.8 36.8-57.6 57.6-100.8 57.6h-81.6c-41.6 0-76.8 35.2-76.8 76.8v473.6c0 43.2 35.2 78.4 76.8 78.4v0zM686.4 136l38.4 65.6c14.4 24 38.4 38.4 67.2 38.4h84.8c64 0 115.2 51.2 115.2 115.2 0 158.4 0 316.8 0 473.6 0 64-51.2 115.2-115.2 115.2-243.2 0-486.4 0-728 0-64 0-115.2-51.2-115.2-115.2-1.6-156.8-1.6-315.2-1.6-473.6 0-64 51.2-115.2 115.2-115.2h84.8c28.8 0 52.8-14.4 67.2-38.4l38.4-65.6c20.8-36.8 57.6-57.6 100.8-57.6h148.8c41.6 0 78.4 20.8 99.2 57.6z" p-id="1986"></path><path d="M512 384c-104 0-188.8 84.8-188.8 188.8s84.8 188.8 188.8 188.8c104 0 188.8-84.8 188.8-188.8 0-104-84.8-188.8-188.8-188.8v0zM512 422.4c83.2 0 148.8 67.2 148.8 148.8 0 83.2-67.2 148.8-148.8 148.8s-148.8-67.2-148.8-148.8c0-81.6 65.6-148.8 148.8-148.8z" p-id="1987"></path></svg>