<?xml version="1.0" standalone="no"?><!DOCTYPE svg PUBLIC "-//W3C//DTD SVG 1.1//EN" "http://www.w3.org/Graphics/SVG/1.1/DTD/svg11.dtd"><svg t="1542257211116" class="icon" style="" viewBox="0 0 1024 1024" version="1.1" xmlns="http://www.w3.org/2000/svg" p-id="8613" xmlns:xlink="http://www.w3.org/1999/xlink" width="200" height="200"><defs><style type="text/css"></style></defs><path d="M845.590658 851.92083c-27.77253 0-49.455365-11.378142-62.705134-32.905434-10.428513-16.942881-15.715937-40.441061-15.715937-69.841671l0-42.915415L285.710161 706.258309l0 42.915415c0 29.153994-5.809309 52.780087-17.266245 70.223365-13.976316 21.277606-36.027541 32.523741-63.770396 32.523741-51.880601 0-84.10963-39.370683-84.10963-102.747105l0-42.915415L73.560366 706.258309c-16.765849 0-29.899984-13.148461-29.899984-29.93273L43.660382 501.529531c0-31.397081 12.18553-60.870346 34.311457-82.992179 22.127973-22.122857 51.610448-34.305317 83.017762-34.305317l0.741897 0 44.89142-179.101097c15.750729-63.952544 77.541027-112.224967 143.713123-112.224967l349.591073 0c66.172095 0 127.962393 48.272423 143.728472 112.286366l44.875047 179.039699 0.74292 0c31.407314 0 60.890812 12.183484 83.017762 34.305317 22.12695 22.121833 34.31248 51.595099 34.31248 82.992179l0 174.795025c0 16.784268-13.134135 29.93273-29.899984 29.93273l-50.664913 0 0 42.915415C926.038898 814.470893 896.717082 851.92083 845.590658 851.92083zM255.010975 675.5581l542.856775 0 0 73.614601c0 72.04792 34.670637 72.04792 47.722908 72.04792 17.308201 0 29.66053-6.082532 37.762045-18.59552 7.841595-12.109806 11.987009-30.592762 11.987009-53.452399l0-73.614601 80.563874 0 0.001023-174.028569c0-47.750537-38.863123-86.59831-86.631056-86.59831l-24.696472 0L813.863049 212.594933c-12.502755-50.759057-61.477166-88.989777-113.935935-88.989777L350.33604 123.605156c-52.458769 0-101.43318 38.23072-113.919563 88.928379l-50.730405 202.397686L160.990624 414.931221c-47.768957 0-86.631056 38.847773-86.631056 86.59831l0 174.028569 76.902484 0 0 73.614601c0 26.907836 6.939039 72.04792 53.410444 72.04792 33.401738 0 50.337455-24.240077 50.337455-72.04792L255.009951 675.5581zM847.566662 669.813259c-56.922431 0-103.233176-46.292326-103.233176-103.195314 0-56.901964 46.310745-103.195314 103.233176-103.195314 56.923454 0 103.234199 46.293349 103.234199 103.195314C950.799838 623.520933 904.490116 669.813259 847.566662 669.813259zM847.566662 494.121817c-39.994899 0-72.53399 32.521694-72.53399 72.496128 0 39.97341 32.53909 72.496128 72.53399 72.496128 39.995923 0 72.535013-32.521694 72.535013-72.496128C920.100652 526.643512 887.562585 494.121817 847.566662 494.121817zM198.5081 669.813259c-56.922431 0-103.233176-46.292326-103.233176-103.195314 0-56.901964 46.310745-103.195314 103.233176-103.195314 56.924477 0 103.236246 46.293349 103.236246 103.195314C301.744345 623.520933 255.432577 669.813259 198.5081 669.813259zM198.5081 494.121817c-39.994899 0-72.53399 32.521694-72.53399 72.496128 0 39.97341 32.53909 72.496128 72.53399 72.496128 39.996946 0 72.53706-32.521694 72.53706-72.496128C271.045159 526.643512 238.505046 494.121817 198.5081 494.121817zM815.368332 389.497968 218.155579 389.497968l53.717436-215.46019c3.551896-12.935614 20.717857-26.114774 34.012651-26.114774l421.751556 0c13.295817 0 30.461779 13.180184 34.012651 26.115797l0.092098 0.350994L815.368332 389.497968zM257.447467 358.798782l518.628978 0-43.823088-175.785585c-1.12973-1.475608-3.938706-3.681856-5.594415-4.39203L306.863946 178.621167c-1.656733 0.709151-4.464685 2.916423-5.594415 4.39203L257.447467 358.798782z" p-id="8614"></path></svg>