<?xml version="1.0" standalone="no"?><!DOCTYPE svg PUBLIC "-//W3C//DTD SVG 1.1//EN" "http://www.w3.org/Graphics/SVG/1.1/DTD/svg11.dtd"><svg t="1542258112919" class="icon" style="" viewBox="0 0 1171 1024" version="1.1" xmlns="http://www.w3.org/2000/svg" p-id="15651" xmlns:xlink="http://www.w3.org/1999/xlink" width="228.7109375" height="200"><defs><style type="text/css"></style></defs><path d="M274.285714 621.714286q0-37.714286-26.857143-64.571429t-64.571429-26.857143-64.571429 26.857143-26.857143 64.571429 26.857143 64.571429 64.571429 26.857143 64.571429-26.857143 26.857143-64.571429zm20.571429-182.857143l580.571429 0-50.857143-204q-1.142857-4.571429-8-10t-12-5.428571l-438.857143 0q-5.142857 0-12 5.428571t-8 10zm784 182.857143q0-37.714286-26.857143-64.571429t-64.571429-26.857143-64.571429 26.857143-26.857143 64.571429 26.857143 64.571429 64.571429 26.857143 64.571429-26.857143 26.857143-64.571429zm91.428571-54.857143l0 219.428571q0 8-5.142857 13.142857t-13.142857 5.142857l-54.857143 0 0 73.142857q0 45.714286-32 77.714286t-77.714286 32-77.714286-32-32-77.714286l0-73.142857-585.142857 0 0 73.142857q0 45.714286-32 77.714286t-77.714286 32-77.714286-32-32-77.714286l0-73.142857-54.857143 0q-8 0-13.142857-5.142857t-5.142857-13.142857l0-219.428571q0-53.142857 37.428571-90.571429t90.571429-37.428571l16 0 60-239.428571q13.142857-53.714286 59.428571-90t102.285714-36.285714l438.857143 0q56 0 102.285714 36.285714t59.428571 90l60 239.428571 16 0q53.142857 0 90.571429 37.428571t37.428571 90.571429z" p-id="15652"></path></svg>