<?xml version="1.0" standalone="no"?><!DOCTYPE svg PUBLIC "-//W3C//DTD SVG 1.1//EN" "http://www.w3.org/Graphics/SVG/1.1/DTD/svg11.dtd"><svg t="1542259175425" class="icon" style="" viewBox="0 0 1024 1024" version="1.1" xmlns="http://www.w3.org/2000/svg" p-id="23389" xmlns:xlink="http://www.w3.org/1999/xlink" width="200" height="200"><defs><style type="text/css"></style></defs><path d="M631.709941 434.253288c53.141314-37.3517 87.922469-99.129718 87.922469-169.038928 0-114.075105-92.51302-206.603475-206.589149-206.603475-114.105804 0-206.602452 92.52837-206.602452 206.603475 0 69.90921 34.70236 131.687228 87.906096 169.038928-127.876436 48.046273-218.859613 171.428348-218.859613 316.073702 0 44.89142 8.754385 87.669712 24.654516 126.820384 91.708702 54.198389 198.638059 85.303828 312.901453 85.303828 114.170273 0 221.179448-31.105439 312.840054-85.303828 15.947204-39.150672 24.702612-81.928964 24.702612-126.820384C850.585927 605.681636 759.602749 482.299561 631.709941 434.253288z" p-id="23390"></path></svg>