<?xml version="1.0" standalone="no"?><!DOCTYPE svg PUBLIC "-//W3C//DTD SVG 1.1//EN" "http://www.w3.org/Graphics/SVG/1.1/DTD/svg11.dtd"><svg t="1542887653532" class="icon" style="" viewBox="0 0 1024 1024" version="1.1" xmlns="http://www.w3.org/2000/svg" p-id="1983" xmlns:xlink="http://www.w3.org/1999/xlink" width="200" height="200"><defs><style type="text/css"></style></defs><path d="M334.222222 782.222222a14.222222 14.222222 0 0 0-14.222222 14.222222v28.444445a14.222222 14.222222 0 1 0 28.444444 0v-28.444445a14.222222 14.222222 0 0 0-14.222222-14.222222zM334.222222 469.333333a14.222222 14.222222 0 0 0-14.222222 14.222223v241.777777a14.222222 14.222222 0 1 0 28.444444 0V483.555556a14.222222 14.222222 0 0 0-14.222222-14.222223zM504.888889 469.333333a14.222222 14.222222 0 0 0-14.222222 14.222223v341.333333a14.222222 14.222222 0 1 0 28.444444 0V483.555556a14.222222 14.222222 0 0 0-14.222222-14.222223zM675.555556 469.333333a14.222222 14.222222 0 0 0-14.222223 14.222223v341.333333a14.222222 14.222222 0 1 0 28.444445 0V483.555556a14.222222 14.222222 0 0 0-14.222222-14.222223z" fill="" p-id="1984"></path><path d="M856.888889 170.666667h-124.885333c-3.854222-86.599111-36.067556-128-146.332445-128h-170.666667c-101.973333 0-133.788444 32.796444-137.329777 128H167.111111a117.333333 117.333333 0 0 0-117.333333 117.333333v7.111111c0 58.737778 43.207111 107.264 99.555555 115.854222v433.479111c0 117.859556 35.171556 136.888889 137.671111 136.888889h426.666667c110.506667 0 146.773333-28.145778 146.773333-136.888889V412.259556c63.132444-1.891556 113.777778-53.560889 113.777778-117.148445v-7.111111A117.333333 117.333333 0 0 0 856.888889 170.666667zM415.004444 99.555556h170.666667c68.067556 0 86.727111 7.267556 89.457778 71.111111H334.378667c1.024-61.795556 9.856-71.111111 80.625777-71.111111z m298.666667 824.888888h-426.666667c-82.673778 0-80.782222-5.248-80.782222-80V412.444444h597.333334v432c0 77.752889-9.984 80-89.884445 80zM917.333333 295.111111A60.444444 60.444444 0 0 1 856.888889 355.555556h-689.777778a60.444444 60.444444 0 0 1-60.444444-60.444445v-7.111111A60.444444 60.444444 0 0 1 167.111111 227.555556h689.777778a60.444444 60.444444 0 0 1 60.444444 60.444444v7.111111z" fill="" p-id="1985"></path></svg>